<?xml version="1.0" encoding="UTF-8" standalone="no"?>
<!DOCTYPE svg PUBLIC "-//W3C//DTD SVG 1.1//EN" "http://www.w3.org/Graphics/SVG/1.1/DTD/svg11.dtd">
<svg xmlns="http://www.w3.org/2000/svg" version="1.1" viewBox="0.00 0.00 254.00 169.00">
<path fill="#ffffff" d="
  M 18.03 22.66
  L 25.45 18.45
  Q 25.81 18.24 26.24 18.24
  L 46.99 18.24
  Q 47.50 18.24 47.50 18.75
  L 47.49 105.62
  A 0.61 0.61 0.0 0 1 46.88 106.23
  L 18.55 106.25
  Q 18.09 106.25 18.09 105.79
  Q 17.98 66.39 18.21 27.06
  C 18.21 25.72 18.01 24.77 17.71 23.39
  A 0.67 0.66 69.3 0 1 18.03 22.66
  Z"
/>
<rect fill="#ffffff" x="76.82" y="18.24" width="29.34" height="88.00" rx="0.50"/>
<path fill="#ffffff" d="
  M 117.63 18.63
  A 0.21 0.21 0.0 0 1 117.84 18.41
  L 157.70 18.21
  A 45.89 40.42 -0.3 0 1 203.80 58.39
  L 203.84 65.16
  A 45.89 40.42 -0.3 0 1 158.16 105.82
  L 118.30 106.03
  A 0.21 0.21 0.0 0 1 118.09 105.82
  L 117.63 18.63
  Z
  M 147.42 42.64
  L 147.36 81.60
  A 0.36 0.36 0.0 0 0 147.72 81.96
  L 155.32 81.97
  A 18.90 17.64 0.1 0 0 174.25 64.36
  L 174.25 59.96
  A 18.90 17.64 0.1 0 0 155.38 42.29
  L 147.78 42.28
  A 0.36 0.36 0.0 0 0 147.42 42.64
  Z"
/>
<rect fill="#ffffff" x="211.35" y="18.25" width="29.28" height="87.98" rx="0.52"/>
<rect fill="#ffffff" x="-11.71" y="-11.71" transform="translate(62.20,62.05) rotate(-0.1)" width="23.42" height="23.42" rx="0.64"/>
<path fill="#ffffff" d="
  M 100.08 143.19
  L 93.78 143.24
  A 0.57 0.57 0.0 0 1 93.21 142.66
  L 93.25 139.25
  Q 93.26 138.75 93.76 138.75
  L 105.00 138.74
  Q 105.50 138.74 105.50 139.25
  L 105.51 150.51
  Q 105.51 151.03 105.10 151.35
  Q 96.68 157.95 87.58 154.40
  C 75.02 149.49 75.56 131.70 87.70 126.63
  Q 96.08 123.14 104.25 129.05
  Q 104.68 129.36 104.33 129.76
  L 101.71 132.78
  Q 101.35 133.18 100.92 132.86
  C 97.83 130.62 93.99 129.20 90.25 130.84
  C 76.96 136.67 85.61 157.21 100.25 148.99
  A 0.88 0.87 75.6 0 0 100.70 148.22
  L 100.73 143.83
  Q 100.73 143.19 100.08 143.19
  Z"
/>
<path fill="#ffffff" d="
  M 211.59 140.51
  A 15.19 15.19 0.0 0 1 196.40 155.70
  A 15.19 15.19 0.0 0 1 181.21 140.51
  A 15.19 15.19 0.0 0 1 196.40 125.32
  A 15.19 15.19 0.0 0 1 211.59 140.51
  Z
  M 197.1687 150.8222
  A 10.36 9.89 85.8 0 0 206.2734 139.7657
  A 10.36 9.89 85.8 0 0 195.6513 130.1578
  A 10.36 9.89 85.8 0 0 186.5466 141.2143
  A 10.36 9.89 85.8 0 0 197.1687 150.8222
  Z"
/>
<path fill="#ffffff" d="
  M 30.74 150.94
  C 36.29 150.97 37.59 144.54 31.76 143.41
  Q 27.48 142.58 24.26 141.29
  C 19.16 139.24 17.81 133.77 20.73 129.41
  C 24.73 123.42 34.34 125.21 39.34 128.88
  Q 39.77 129.19 39.47 129.63
  L 37.35 132.68
  Q 37.08 133.07 36.69 132.81
  Q 33.29 130.62 30.26 130.04
  C 25.33 129.09 21.25 135.28 27.26 136.99
  C 33.21 138.68 42.72 140.22 40.43 149.02
  C 37.95 158.52 24.20 155.91 18.59 151.16
  Q 18.11 150.74 18.53 150.27
  L 20.91 147.65
  Q 21.26 147.27 21.65 147.60
  Q 25.54 150.91 30.74 150.94
  Z"
/>
<path fill="#ffffff" d="
  M 234.34 144.55
  C 229.24 142.32 220.12 142.26 219.33 135.11
  C 218.77 130.01 222.53 126.14 227.53 125.61
  Q 233.92 124.94 239.33 128.86
  Q 239.77 129.18 239.46 129.64
  L 237.41 132.68
  Q 237.10 133.13 236.66 132.81
  Q 233.34 130.44 230.03 129.99
  C 225.04 129.30 221.66 135.48 227.24 137.06
  C 232.59 138.58 242.07 139.87 240.62 147.98
  C 238.70 158.77 224.51 155.98 218.62 151.25
  Q 218.12 150.85 218.53 150.37
  L 220.93 147.59
  Q 221.31 147.15 221.74 147.54
  Q 226.13 151.48 231.67 150.77
  C 234.59 150.40 236.65 148.26 235.13 145.30
  Q 234.86 144.79 234.34 144.55
  Z"
/>
<path fill="#ffffff" d="
  M 54.55 142.89
  L 54.53 150.13
  A 0.36 0.36 0.0 0 0 54.89 150.49
  L 70.92 150.48
  A 0.36 0.36 0.0 0 1 71.28 150.83
  L 71.38 154.53
  A 0.36 0.36 0.0 0 1 71.02 154.90
  L 50.09 154.90
  A 0.36 0.36 0.0 0 1 49.73 154.54
  L 49.71 126.38
  A 0.36 0.36 0.0 0 1 50.07 126.02
  L 70.64 126.06
  A 0.36 0.36 0.0 0 1 71.00 126.41
  L 71.10 130.36
  A 0.36 0.36 0.0 0 1 70.74 130.73
  L 54.96 130.70
  A 0.36 0.36 0.0 0 0 54.60 131.06
  L 54.61 137.80
  A 0.36 0.36 0.0 0 0 54.97 138.16
  L 69.00 138.08
  A 0.36 0.36 0.0 0 1 69.36 138.44
  L 69.41 142.17
  A 0.36 0.36 0.0 0 1 69.05 142.53
  L 54.91 142.53
  A 0.36 0.36 0.0 0 0 54.55 142.89
  Z"
/>
<path fill="#ffffff" d="
  M 120.14 144.12
  C 120.13 152.51 134.15 153.67 134.42 143.73
  Q 134.65 135.19 134.64 126.60
  Q 134.64 126.01 135.23 126.01
  L 139.22 126.02
  Q 139.79 126.02 139.78 126.59
  Q 139.71 134.54 139.80 142.45
  C 140.00 159.90 115.58 159.68 114.94 144.24
  Q 114.68 137.94 114.89 126.56
  Q 114.90 126.03 115.44 126.03
  L 119.56 126.03
  Q 120.13 126.03 120.13 126.60
  Q 120.16 135.39 120.14 144.12
  Z"
/>
<path fill="#ffffff" d="
  M 167.36 144.66
  L 174.45 154.59
  Q 174.76 155.03 174.22 155.02
  L 169.27 154.96
  Q 168.66 154.95 168.31 154.46
  L 161.77 145.20
  Q 161.47 144.76 160.94 144.76
  L 155.88 144.76
  Q 155.26 144.76 155.26 145.37
  L 155.27 154.49
  Q 155.27 155.01 154.76 155.01
  L 150.47 154.96
  Q 149.98 154.95 149.98 154.47
  L 149.99 126.52
  Q 149.99 126.06 150.45 126.06
  Q 156.80 125.97 163.08 126.07
  C 167.98 126.15 172.67 127.97 173.59 133.15
  Q 174.93 140.69 167.55 143.96
  Q 167.02 144.19 167.36 144.66
  Z
  M 155.28 131.04
  L 155.24 140.04
  A 0.35 0.35 0.0 0 0 155.59 140.39
  L 163.29 140.41
  A 5.37 4.70 0.2 0 0 168.68 135.73
  L 168.68 135.43
  A 5.37 4.70 0.2 0 0 163.33 130.71
  L 155.63 130.69
  A 0.35 0.35 0.0 0 0 155.28 131.04
  Z"
/>
</svg>
